<svg version="1.1" id="Layer_1" xmlns="http://www.w3.org/2000/svg" xmlns:xlink="http://www.w3.org/1999/xlink" x="0px" y="0px"
	 width="100%" viewBox="0 0 600 600" enable-background="new 0 0 600 600" xml:space="preserve">
<path fill="#47704C" opacity="1.000000" stroke="none" 
	d="
M332.000000,601.000000 
	C221.333328,601.000000 111.166664,601.000000 1.000000,601.000000 
	C1.000000,401.000000 1.000000,201.000000 1.000000,1.000000 
	C201.000000,1.000000 401.000000,1.000000 601.000000,1.000000 
	C601.000000,201.000000 601.000000,401.000000 601.000000,601.000000 
	C511.500000,601.000000 422.000000,601.000000 332.000000,601.000000 
M478.875488,555.904846 
	C478.875488,555.904846 478.688049,555.841309 479.358948,555.762878 
	C480.245087,554.836243 481.131256,553.909546 482.155457,552.311340 
	C483.129120,551.220581 484.001495,550.014343 485.092346,549.057190 
	C494.688507,540.637146 504.323547,532.261475 514.445557,523.527405 
	C515.004150,522.702759 515.562744,521.878052 516.578796,521.040894 
	C516.578796,521.040894 516.948364,520.770996 517.566528,520.776978 
	C518.169434,520.116028 518.772278,519.455078 520.001892,518.627075 
	C520.311035,518.339417 520.620178,518.051819 521.571716,517.667847 
	C522.719666,516.449707 523.867615,515.231506 525.000000,514.000000 
	C525.000000,514.000000 525.013000,514.015564 525.659302,513.903320 
	C526.382996,512.923889 527.106689,511.944458 528.267883,510.642944 
	C528.500549,510.366608 528.733154,510.090302 529.625549,509.769043 
	C530.458618,509.506897 531.291748,509.244751 532.655396,508.602448 
	C541.165405,504.170044 547.089722,496.679535 554.024597,490.396515 
	C555.374573,489.173462 556.007324,487.158752 557.073364,484.854462 
	C561.050110,479.706635 560.360657,473.832458 559.869995,467.071381 
	C559.794495,464.042175 559.719055,461.013000 559.838806,457.077667 
	C559.746643,453.043365 559.654480,449.009094 559.763245,444.063934 
	C559.725037,435.379333 559.686768,426.694763 559.910156,417.278503 
	C559.833191,415.116638 559.756226,412.954803 559.828552,409.903381 
	C559.747437,405.672821 559.666382,401.442291 559.796021,396.477142 
	C557.965149,393.041351 558.471680,387.840363 552.416016,387.154602 
	C552.416016,387.154602 551.993530,387.018341 551.918335,386.500244 
	C551.625732,386.352570 551.333191,386.204895 550.564636,385.599945 
	C549.715576,385.399139 548.866455,385.198364 547.382019,384.453247 
	C545.903809,384.302246 544.425659,384.019440 542.947388,384.019073 
	C455.703156,383.997955 368.458923,383.994415 281.214722,384.041779 
	C279.470428,384.042725 277.726471,384.665100 275.083679,385.003052 
	C270.418915,385.279633 265.222778,383.767853 261.421570,389.288788 
	C258.676270,391.389038 255.931931,393.490540 253.185440,395.589233 
	C246.869675,400.415436 240.552887,405.240295 233.477325,410.037933 
	C225.245056,413.170410 219.953033,420.317780 212.239883,425.055695 
	C211.094330,425.694489 209.948792,426.333282 208.461060,427.174805 
	C208.247375,427.342255 208.087143,427.550781 207.428970,428.151611 
	C206.313080,428.108765 205.197174,428.065887 204.026901,427.992767 
	C204.026901,427.992767 204.019516,428.054565 204.472015,427.670685 
	C204.664322,427.116821 204.856613,426.562927 205.555389,425.563751 
	C207.994980,423.423096 210.480255,421.331940 212.864609,419.131439 
	C217.790161,414.585938 223.165588,410.393646 227.368439,405.249237 
	C229.923096,402.122406 235.401108,401.036346 235.259583,394.917877 
	C238.066299,390.833710 241.617905,387.053894 243.449295,382.571289 
	C244.975586,378.835449 244.483841,374.275146 245.494156,369.683136 
	C246.009827,365.354370 246.972275,361.025970 246.975723,356.696777 
	C247.059555,251.610031 246.991882,146.523132 247.139221,41.436527 
	C247.150421,33.442547 245.305267,27.424723 236.356400,24.422337 
	C235.210861,24.275713 234.065353,24.001835 232.919769,24.001465 
	C214.278107,23.995422 195.636429,24.024017 176.059570,24.020596 
	C162.195145,24.013018 148.330368,23.948757 134.466461,24.029867 
	C129.867874,24.056772 125.271667,24.633673 120.674019,24.638639 
	C115.895981,24.643803 111.040619,23.670244 106.369179,24.278166 
	C103.725479,24.622210 101.383492,27.284763 98.219238,29.004608 
	C96.131363,31.350378 94.043495,33.696148 91.431679,36.435127 
	C84.228249,43.981358 76.945625,51.454010 69.844894,59.095669 
	C63.461323,65.965553 57.277431,73.020981 50.478111,80.343201 
	C50.673244,81.240364 50.868378,82.137520 50.977539,83.936333 
	C50.824039,86.640831 50.670540,89.345322 49.906113,92.438774 
	C49.338055,105.114372 48.744053,117.789055 48.301399,130.469040 
	C48.284542,130.951904 49.729736,131.485809 50.841675,132.740082 
	C50.967854,151.823044 51.099701,170.905960 51.218613,189.988968 
	C51.336452,208.900909 51.441242,227.812912 51.209354,247.511414 
	C51.330807,252.770523 51.452259,258.029633 51.332062,264.161957 
	C51.394772,269.685364 51.457481,275.208740 51.184753,281.520721 
	C51.120579,301.138947 51.036949,320.757172 51.018284,340.375458 
	C51.016094,342.677460 51.371571,344.979767 51.332233,348.160919 
	C51.403477,357.744263 51.474724,367.327576 51.250256,377.691467 
	C51.175171,378.853271 51.034260,380.015106 51.034512,381.176910 
	C51.043823,423.816345 51.081459,466.455750 51.059586,509.095184 
	C51.057720,512.726379 50.671223,516.357300 49.785954,520.526367 
	C49.577049,530.514404 49.350449,540.502197 49.214058,550.491211 
	C49.207577,550.966248 50.000122,551.452209 50.924549,552.560974 
	C51.299828,554.389587 51.675106,556.218201 51.679176,558.150269 
	C51.831150,558.352539 51.983120,558.554810 52.187038,558.875916 
	C52.187038,558.875916 52.316357,558.885437 52.273678,559.537598 
	C52.530331,560.363525 52.786983,561.189514 53.040581,562.748535 
	C55.051250,564.479370 57.061916,566.210205 59.007893,567.921692 
	C59.007893,567.921692 59.066044,567.887329 59.202904,568.601013 
	C62.145817,569.709473 65.088730,570.817871 68.964409,571.961670 
	C82.163139,571.978882 95.361931,571.976196 108.560562,572.021790 
	C115.046127,572.044189 121.535355,572.326538 128.015594,572.175903 
	C133.700089,572.043701 139.374374,571.471130 145.491104,571.032776 
	C145.491104,571.032776 145.927643,571.102417 146.255325,571.587158 
	C149.795166,571.734131 153.334900,572.005981 156.874847,572.008728 
	C193.172241,572.036743 229.469681,572.033875 265.767029,571.978638 
	C267.528473,571.975952 269.289062,571.406189 271.552551,570.924500 
	C271.725800,570.885986 271.899078,570.847412 272.578552,571.474670 
	C277.686584,571.241699 282.794617,571.008728 288.595154,570.831787 
	C289.048828,570.920532 289.502502,571.009277 290.646210,571.571655 
	C291.459930,571.704834 292.273499,571.953247 293.087402,571.954346 
	C316.153809,571.985596 339.220306,572.006104 362.286652,571.963562 
	C363.541534,571.961243 364.795410,571.398254 366.483307,571.032410 
	C366.483307,571.032410 366.914612,571.110046 367.163361,571.682312 
	C375.118744,571.798828 383.073853,571.985413 391.029572,572.017090 
	C406.984894,572.080627 422.940582,572.059570 439.546326,572.567383 
	C442.755432,572.398804 445.964569,572.230164 449.499390,572.064209 
	C449.499390,572.064209 449.825043,572.057007 450.465759,572.541443 
	C453.038422,572.386353 455.611115,572.231262 458.927856,572.051758 
	C462.182556,569.539978 465.437225,567.028198 468.748474,564.675842 
	C468.748474,564.675842 468.582703,564.709656 469.312653,564.666992 
	C471.799622,562.322021 474.286621,559.977051 476.749512,557.782776 
	C476.749512,557.782776 476.603271,557.739380 477.268036,557.652283 
	C477.822205,557.006470 478.376404,556.360596 478.875488,555.904846 
z"/>
<path fill="#FCFCFC" opacity="1.000000" stroke="none" 
	d="
M559.585327,397.211731 
	C559.666382,401.442291 559.747437,405.672821 559.413513,410.465149 
	C558.300110,413.348145 557.601746,415.669403 556.583618,418.071320 
	C551.158203,423.148926 546.202148,428.310516 540.919678,433.113037 
	C521.971313,450.339783 502.904724,467.436310 483.899048,484.600006 
	C474.892090,492.734070 465.921906,500.908813 456.472900,509.042908 
	C423.266541,509.037720 390.522339,509.040436 357.778198,509.076538 
	C332.849670,509.104004 307.921204,509.173859 282.546875,509.161377 
	C279.402863,509.143677 276.704742,509.189484 273.543976,509.166321 
	C267.756561,509.213165 262.431793,509.328979 256.734924,509.363525 
	C254.577896,509.271606 252.792938,509.260956 250.593201,509.182190 
	C248.782990,509.169708 247.387558,509.225311 245.532349,509.213013 
	C240.712418,509.176880 236.352234,509.208649 231.527802,509.173981 
	C217.948181,509.068665 204.832703,508.979980 191.717438,509.002136 
	C170.471176,509.038025 149.225021,509.146637 127.545822,509.155640 
	C125.354401,509.237427 123.592369,509.547211 121.838264,509.507355 
	C117.540771,509.409821 113.246941,509.150940 109.037033,508.755737 
	C109.122437,508.554474 109.187477,508.121979 109.531570,508.079834 
	C125.272339,496.138611 140.686890,484.262604 156.060257,472.333557 
	C169.056900,462.248749 182.005829,452.102448 195.221588,441.940094 
	C195.811737,441.760681 196.008270,441.509064 196.382843,441.064148 
	C197.682449,440.086365 198.656143,439.186401 199.765274,438.292358 
	C199.900696,438.298279 199.973953,438.037262 200.265488,438.010315 
	C200.807892,437.694702 201.058777,437.406097 201.511002,437.103943 
	C201.996643,436.990875 202.159729,436.792023 202.544281,436.397583 
	C212.323547,428.981934 221.796844,421.708771 231.154800,414.290131 
	C232.471115,413.246613 233.223251,411.491455 234.236511,410.065674 
	C240.552887,405.240295 246.869675,400.415436 253.185440,395.589233 
	C255.931931,393.490540 258.676270,391.389038 262.092651,389.192169 
	C267.751495,388.144562 272.737427,386.376282 277.727234,386.365204 
	C352.691223,386.198975 427.655762,386.225006 502.620087,386.305878 
	C518.732361,386.323242 534.844238,386.735077 551.213623,387.016602 
	C551.645142,387.051422 551.819336,387.034882 551.993530,387.018341 
	C551.993530,387.018341 552.416016,387.154602 552.712158,387.540985 
	C555.200684,391.022156 557.393005,394.116943 559.585327,397.211731 
z"/>
<path fill="#B7C4CE" opacity="1.000000" stroke="none" 
	d="
M50.463409,519.988403 
	C50.671223,516.357300 51.057720,512.726379 51.059586,509.095184 
	C51.081459,466.455750 51.043823,423.816345 51.034512,381.176910 
	C51.034260,380.015106 51.175171,378.853271 51.764954,377.342712 
	C52.653522,378.000061 53.511894,379.109772 53.322453,379.995392 
	C52.111446,385.656311 53.886272,390.104370 58.601337,393.131897 
	C59.607830,393.778198 60.182510,395.075256 61.014648,396.021027 
	C61.813488,396.928925 62.688274,397.770050 63.529678,398.640503 
	C64.319107,397.481903 65.418304,396.425385 65.840034,395.145599 
	C67.116425,391.272247 68.145592,387.316650 69.236450,383.383484 
	C69.545082,382.270691 69.912209,381.131134 69.951828,379.993408 
	C70.337479,368.919678 70.805519,357.844940 70.899208,346.767517 
	C70.923485,343.897705 70.103737,340.859680 69.003181,338.172729 
	C66.126671,331.149994 64.474945,324.478027 68.731628,317.172302 
	C70.706108,313.783508 71.522926,309.443146 71.871849,305.447449 
	C72.435013,298.998444 70.951195,292.161102 72.527977,286.054810 
	C75.586555,274.210236 76.813042,262.780548 72.638283,251.019714 
	C71.864815,248.840759 72.407387,246.122742 72.629982,243.679718 
	C72.930542,240.381012 73.710709,237.120773 73.925369,233.820618 
	C74.331276,227.580261 74.490349,221.323578 74.734871,215.073029 
	C75.196609,203.269699 75.717529,191.462341 71.597870,180.065491 
	C69.183624,173.386551 68.333237,166.572113 69.365860,159.470139 
	C70.122253,154.268021 70.350937,148.990860 70.889885,143.754883 
	C71.321167,139.564896 71.017006,135.050720 72.515549,131.264771 
	C77.391510,118.946053 78.603630,106.384003 75.768753,93.609947 
	C73.577599,83.736504 76.604164,75.971458 83.369804,69.133369 
	C89.522354,62.914928 89.568443,62.915817 96.901184,65.898552 
	C97.195114,66.018112 97.560379,65.962273 97.939728,66.391296 
	C98.018097,71.094078 98.075905,75.393715 98.076309,79.693352 
	C98.086266,184.921265 98.088837,290.149170 98.095795,395.377075 
	C98.098045,429.343079 98.078041,463.309113 98.156754,497.274963 
	C98.166130,501.315704 97.618523,505.774567 102.318375,508.492371 
	C102.890862,509.431854 103.363670,510.082916 103.471985,510.863525 
	C101.607803,512.280212 99.970284,513.438782 98.630325,514.875000 
	C88.370041,525.872070 78.167709,536.923157 67.604942,547.808960 
	C63.921471,547.305969 60.582298,546.712158 57.238682,546.685913 
	C55.202995,546.669861 53.160431,547.528809 51.018456,547.555237 
	C50.808983,545.014038 50.702007,542.912354 50.732079,540.562988 
	C50.767288,539.774658 50.665447,539.234009 50.618111,538.302246 
	C50.602882,531.936890 50.533150,525.962646 50.463409,519.988403 
z"/>
<path fill="#B1BFCA" opacity="1.000000" stroke="none" 
	d="
M97.892410,65.988159 
	C97.560379,65.962273 97.195114,66.018112 96.901184,65.898552 
	C89.568443,62.915817 89.522354,62.914928 83.369804,69.133369 
	C76.604164,75.971458 73.577599,83.736504 75.768753,93.609947 
	C78.603630,106.384003 77.391510,118.946053 72.515549,131.264771 
	C71.017006,135.050720 71.321167,139.564896 70.889885,143.754883 
	C70.350937,148.990860 70.122253,154.268021 69.365860,159.470139 
	C68.333237,166.572113 69.183624,173.386551 71.597870,180.065491 
	C75.717529,191.462341 75.196609,203.269699 74.734871,215.073029 
	C74.490349,221.323578 74.331276,227.580261 73.925369,233.820618 
	C73.710709,237.120773 72.930542,240.381012 72.629982,243.679718 
	C72.407387,246.122742 71.864815,248.840759 72.638283,251.019714 
	C76.813042,262.780548 75.586555,274.210236 72.527977,286.054810 
	C70.951195,292.161102 72.435013,298.998444 71.871849,305.447449 
	C71.522926,309.443146 70.706108,313.783508 68.731628,317.172302 
	C64.474945,324.478027 66.126671,331.149994 69.003181,338.172729 
	C70.103737,340.859680 70.923485,343.897705 70.899208,346.767517 
	C70.805519,357.844940 70.337479,368.919678 69.951828,379.993408 
	C69.912209,381.131134 69.545082,382.270691 69.236450,383.383484 
	C68.145592,387.316650 67.116425,391.272247 65.840034,395.145599 
	C65.418304,396.425385 64.319107,397.481903 63.529678,398.640503 
	C62.688274,397.770050 61.813488,396.928925 61.014648,396.021027 
	C60.182510,395.075256 59.607830,393.778198 58.601337,393.131897 
	C53.886272,390.104370 52.111446,385.656311 53.322453,379.995392 
	C53.511894,379.109772 52.653522,378.000061 51.912811,376.952454 
	C51.474724,367.327576 51.403477,357.744263 51.733059,347.455505 
	C59.430012,337.488495 54.639755,326.022736 57.698650,315.979675 
	C57.852173,315.475647 57.199059,314.770721 57.077194,314.129761 
	C56.680016,312.040802 56.102478,309.944336 56.050858,307.839539 
	C55.909473,302.074707 55.810490,296.295776 56.063919,290.538696 
	C56.248699,286.341095 55.001572,283.091583 51.520191,280.732147 
	C51.457481,275.208740 51.394772,269.685364 51.736382,263.436157 
	C55.459911,257.252319 56.792572,251.867523 51.551754,246.724899 
	C51.441242,227.812912 51.336452,208.900909 51.218613,189.988968 
	C51.099701,170.905960 50.967854,151.823044 50.729065,131.965515 
	C50.594055,128.419891 50.571659,125.648811 50.638069,122.689301 
	C50.726871,122.500862 50.550255,122.123528 50.624649,121.660278 
	C50.686485,117.756683 50.673923,114.316322 50.737644,110.683678 
	C50.813927,110.491386 50.621017,110.125374 50.665264,109.661110 
	C50.653324,106.090553 50.597141,102.984268 50.630569,99.688538 
	C50.720177,99.499100 50.534382,99.123398 50.605389,98.686661 
	C50.623276,96.183228 50.570160,94.116524 50.517036,92.049820 
	C50.670540,89.345322 50.824039,86.640831 51.228683,83.293381 
	C51.321705,81.765144 51.163586,80.879852 51.005463,79.994568 
	C57.277431,73.020981 63.461323,65.965553 69.844894,59.095669 
	C76.945625,51.454010 84.228249,43.981358 91.917343,36.359756 
	C94.046806,35.408089 95.690613,34.531792 97.574493,34.105804 
	C97.840515,45.033466 97.866463,55.510811 97.892410,65.988159 
z"/>
<path fill="#92A7B6" opacity="1.000000" stroke="none" 
	d="
M67.947372,547.957458 
	C78.167709,536.923157 88.370041,525.872070 98.630325,514.875000 
	C99.970284,513.438782 101.607803,512.280212 103.733597,510.791687 
	C105.890343,510.045898 107.420998,509.501434 108.951645,508.957001 
	C113.246941,509.150940 117.540771,509.409821 121.838264,509.507355 
	C123.592369,509.547211 125.354401,509.237427 127.578346,509.494629 
	C129.834641,511.508575 131.656937,513.081055 133.410065,514.727173 
	C138.022888,519.058350 145.731705,520.761841 145.670807,527.949707 
	C148.724274,529.021729 151.468796,529.771912 153.965576,531.018372 
	C154.557785,531.314026 154.319336,533.273499 154.603409,535.635071 
	C152.178787,533.443542 150.860809,532.252258 149.542831,531.060974 
	C148.992050,531.264282 148.441269,531.467590 147.890503,531.670898 
	C148.279037,534.956482 148.403427,538.301025 149.120285,541.513245 
	C150.105469,545.928040 151.539230,550.242676 152.801666,554.673523 
	C156.033615,555.783875 160.259964,557.363770 164.566833,558.680237 
	C169.083389,560.060730 173.995010,562.852661 178.166397,562.056030 
	C185.306732,560.692200 191.912781,562.165039 198.204544,564.001343 
	C203.991730,565.690369 208.897522,564.565186 214.099594,563.172668 
	C216.486908,562.533691 229.441437,565.023682 230.900940,566.974854 
	C231.611084,567.924194 231.573318,569.432861 231.419708,570.768494 
	C219.192245,570.855835 207.419144,570.838074 195.646194,570.876221 
	C179.073273,570.929932 162.500488,571.025024 145.927643,571.102417 
	C145.927643,571.102417 145.491104,571.032776 144.802612,570.975708 
	C118.745026,570.941895 93.375923,570.965149 67.735786,570.761963 
	C64.665176,569.652771 61.865608,568.770020 59.066044,567.887329 
	C59.066044,567.887329 59.007893,567.921692 59.022972,567.594177 
	C57.039913,565.516235 55.041771,563.765869 53.043633,562.015442 
	C52.786983,561.189514 52.530331,560.363525 52.623169,559.281250 
	C54.720188,558.762146 57.008278,559.107849 58.115314,558.124329 
	C61.629589,555.002075 64.703331,551.383911 67.947372,547.957458 
z"/>
<path fill="#9EB0BD" opacity="1.000000" stroke="none" 
	d="
M251.007980,509.250275 
	C252.792938,509.260956 254.577896,509.271606 256.664246,509.756042 
	C257.057770,511.459076 256.660614,513.157471 257.318817,513.844116 
	C263.069275,519.842407 271.641235,517.410217 274.006592,509.235291 
	C276.704742,509.189484 279.402863,509.143677 282.550293,509.571838 
	C283.016113,514.476013 283.727753,519.042603 282.891571,523.305481 
	C281.530182,530.246216 281.319550,536.397278 287.134674,541.615784 
	C288.230499,542.599243 288.949738,545.327576 288.378662,546.586792 
	C286.856842,549.942444 288.574585,552.164124 289.403625,555.150452 
	C290.948547,560.715393 294.139282,558.271179 297.107727,558.199890 
	C298.077423,558.176575 299.048645,558.635681 300.033600,558.752563 
	C303.838531,559.204346 306.083496,556.749084 304.331421,553.352051 
	C301.876617,548.592407 304.879730,547.452637 308.152710,546.198608 
	C311.177155,545.039734 314.251007,544.009827 317.730438,542.770935 
	C317.914612,542.964294 318.632507,543.451233 318.984802,544.128418 
	C323.232422,552.292053 328.622162,557.747742 338.831360,553.428955 
	C339.803406,553.017761 342.449188,554.161743 342.843872,555.164124 
	C346.218384,563.733582 353.008270,563.271240 360.293152,562.539490 
	C362.901001,562.277466 365.650696,563.360657 368.327728,563.871216 
	C371.688843,564.512146 375.204041,566.193054 378.368561,565.678345 
	C388.825470,563.977356 399.228516,561.785950 409.509613,559.212891 
	C418.058533,557.073303 426.418671,557.618469 434.548370,560.185181 
	C439.334290,561.696106 444.481415,563.964905 443.612366,570.788208 
	C417.737366,570.961731 392.325989,571.035889 366.914612,571.110046 
	C366.914612,571.110046 366.483307,571.032410 365.847778,570.980347 
	C363.807617,570.849915 362.403015,570.771545 360.967316,570.377197 
	C360.353363,569.511963 359.770508,568.962708 359.187622,568.413452 
	C358.792419,569.176758 358.397156,569.940002 357.539673,570.785278 
	C345.723053,570.801086 334.368683,570.734863 323.034302,570.328918 
	C324.074921,566.886108 322.810974,565.742371 319.725433,564.907715 
	C314.049835,563.372437 308.836914,564.576233 303.771454,566.738220 
	C302.509857,567.276672 301.897980,569.337463 300.536041,570.775879 
	C296.708466,570.934814 293.332306,571.016479 289.956177,571.098083 
	C289.502502,571.009277 289.048828,570.920532 287.904755,570.601562 
	C282.167023,570.517273 277.119659,570.663086 272.072327,570.808899 
	C271.899078,570.847412 271.725800,570.885986 270.964905,570.918640 
	C269.923126,570.824829 269.468994,570.736938 269.012695,570.255737 
	C268.048401,568.004883 267.485535,564.971313 266.057404,564.486450 
	C258.587067,561.950256 250.925186,559.951111 243.269821,558.001038 
	C240.262802,557.235046 239.114227,555.953186 239.751465,552.751404 
	C240.285614,550.067505 240.186890,547.251831 240.300247,544.491699 
	C240.401566,542.024536 239.938049,539.431152 240.541168,537.105469 
	C243.075562,527.332764 244.806458,521.342896 234.657730,513.671814 
	C233.381714,512.707275 232.862137,510.742004 231.992065,509.240417 
	C236.352234,509.208649 240.712418,509.176880 245.562225,509.565002 
	C247.121414,510.915192 248.190948,511.845459 249.260498,512.775757 
	C249.842987,511.600586 250.425491,510.425446 251.007980,509.250275 
M282.958984,544.382690 
	C281.857086,543.361267 280.755188,542.339844 279.653290,541.318420 
	C279.340149,541.687500 279.026978,542.056641 278.713837,542.425781 
	C279.937256,543.087219 281.160675,543.748657 282.958984,544.382690 
M261.347809,524.615601 
	C262.248383,525.281433 263.148926,525.947266 264.049500,526.613098 
	C264.323364,526.070374 264.597229,525.527588 264.871094,524.984863 
	C263.740936,524.669250 262.610779,524.353699 261.347809,524.615601 
z"/>
<path fill="#D2DAE0" opacity="1.000000" stroke="none" 
	d="
M456.935059,509.065125 
	C465.921906,500.908813 474.892090,492.734070 483.899048,484.600006 
	C502.904724,467.436310 521.971313,450.339783 540.919678,433.113037 
	C546.202148,428.310516 551.158203,423.148926 557.042114,418.074280 
	C558.429688,418.001068 559.039124,418.005615 559.648560,418.010162 
	C559.686768,426.694763 559.725037,435.379333 559.307922,444.549866 
	C554.109863,446.345154 549.100647,449.292389 544.687744,448.574402 
	C538.302368,447.535431 534.826965,450.038757 531.985962,454.514099 
	C529.959106,457.706879 528.619080,461.376160 527.272949,464.946106 
	C526.395020,467.274323 526.757751,470.380829 525.328247,472.125946 
	C522.356018,475.754700 518.384460,478.538513 517.911743,483.810333 
	C517.839478,484.615509 516.356812,485.371063 515.430542,486.010376 
	C509.282745,490.253632 504.912384,496.127197 504.461151,503.392853 
	C504.082214,509.494751 503.859009,514.587280 498.411804,518.731628 
	C492.849884,522.963257 488.150024,528.312500 482.917542,532.999207 
	C480.368195,535.282593 477.750702,537.960022 474.663940,539.076660 
	C467.956909,541.502869 461.804688,543.606934 462.653900,552.724182 
	C462.837982,554.700500 461.612122,558.389893 458.006927,554.600586 
	C457.994995,553.131165 458.004303,552.062195 458.242188,550.669006 
	C458.294220,547.220947 458.117706,544.096985 457.928467,540.509460 
	C457.588806,529.718933 457.261902,519.392029 456.935059,509.065125 
z"/>
<path fill="#CBD5DC" opacity="1.000000" stroke="none" 
	d="
M458.028168,555.000916 
	C461.612122,558.389893 462.837982,554.700500 462.653900,552.724182 
	C461.804688,543.606934 467.956909,541.502869 474.663940,539.076660 
	C477.750702,537.960022 480.368195,535.282593 482.917542,532.999207 
	C488.150024,528.312500 492.849884,522.963257 498.411804,518.731628 
	C503.859009,514.587280 504.082214,509.494751 504.461151,503.392853 
	C504.912384,496.127197 509.282745,490.253632 515.430542,486.010376 
	C516.356812,485.371063 517.839478,484.615509 517.911743,483.810333 
	C518.384460,478.538513 522.356018,475.754700 525.328247,472.125946 
	C526.757751,470.380829 526.395020,467.274323 527.272949,464.946106 
	C528.619080,461.376160 529.959106,457.706879 531.985962,454.514099 
	C534.826965,450.038757 538.302368,447.535431 544.687744,448.574402 
	C549.100647,449.292389 554.109863,446.345154 559.207520,445.005310 
	C559.654480,449.009094 559.746643,453.043365 559.391602,457.556396 
	C558.002930,458.339844 557.015564,458.546967 556.126953,458.964203 
	C546.116943,463.663940 540.605957,472.537476 535.223145,481.536255 
	C532.864258,485.479675 531.060486,490.009644 527.897217,493.162048 
	C522.069580,498.969635 518.415405,505.266968 519.012390,513.667480 
	C519.128174,515.295837 518.994690,516.941895 518.704224,518.738464 
	C517.937622,519.521729 517.442993,520.146362 516.948364,520.770996 
	C516.948364,520.770996 516.578796,521.040894 516.039062,521.136841 
	C514.981934,522.112732 514.464539,522.992737 513.947083,523.872681 
	C504.323547,532.261475 494.688507,540.637146 485.092346,549.057190 
	C484.001495,550.014343 483.129120,551.220581 481.736542,552.649048 
	C480.441101,553.938293 479.564575,554.889832 478.688049,555.841309 
	C478.688049,555.841309 478.875488,555.904846 478.556824,555.832703 
	C477.693207,556.420166 477.148254,557.079773 476.603271,557.739380 
	C476.603271,557.739380 476.749512,557.782776 476.410278,557.727905 
	C473.574921,560.018494 471.078796,562.364075 468.582703,564.709656 
	C468.582703,564.709656 468.748474,564.675842 468.373352,564.653687 
	C464.666382,566.542053 461.334503,568.452576 457.994965,569.891479 
	C458.000885,564.613464 458.014526,559.807190 458.028168,555.000916 
z"/>
<path fill="#9EB0BD" opacity="1.000000" stroke="none" 
	d="
M244.885895,370.079987 
	C244.483841,374.275146 244.975586,378.835449 243.449295,382.571289 
	C241.617905,387.053894 238.066299,390.833710 234.761230,395.253662 
	C232.431534,396.964111 230.512985,398.237732 228.783661,399.730560 
	C220.525269,406.859741 212.318207,414.048370 203.934677,420.860962 
	C202.087265,419.336975 200.491455,417.987274 198.681625,417.051422 
	C196.992172,416.177887 195.075378,415.743958 193.388748,414.818939 
	C210.586182,396.956116 227.653519,379.390900 244.810211,362.274902 
	C244.895020,365.176117 244.890457,367.628052 244.885895,370.079987 
z"/>
<path fill="#C6D1D9" opacity="1.000000" stroke="none" 
	d="
M518.976196,518.579834 
	C518.994690,516.941895 519.128174,515.295837 519.012390,513.667480 
	C518.415405,505.266968 522.069580,498.969635 527.897217,493.162048 
	C531.060486,490.009644 532.864258,485.479675 535.223145,481.536255 
	C540.605957,472.537476 546.116943,463.663940 556.126953,458.964203 
	C557.015564,458.546967 558.002930,458.339844 559.294006,458.009460 
	C559.719055,461.013000 559.794495,464.042175 559.484924,467.635254 
	C553.830994,475.092560 548.745544,482.138062 543.211853,488.811920 
	C540.646545,491.905762 539.648315,494.613586 541.917847,498.317474 
	C541.249146,499.044678 540.685669,499.515656 539.898010,500.122070 
	C539.462158,500.531433 539.250488,500.805389 539.028809,501.042358 
	C539.018738,501.005341 539.072449,501.060089 538.706421,501.065247 
	C537.619019,501.861511 536.897705,502.652649 536.038574,503.709900 
	C534.686157,505.010956 533.471558,506.045929 531.938477,507.161835 
	C530.735291,508.099823 529.850525,508.956879 528.965820,509.813965 
	C528.733154,510.090302 528.500549,510.366608 527.731506,510.870728 
	C526.467712,512.070801 525.740356,513.043213 525.013000,514.015564 
	C525.013000,514.015564 525.000000,514.000000 524.677124,514.052795 
	C523.212646,515.325134 522.070984,516.544678 520.929321,517.764221 
	C520.620178,518.051819 520.311035,518.339417 519.585693,518.663696 
	C519.169495,518.700317 518.976196,518.579834 518.976196,518.579834 
z"/>
<path fill="#3A6B75" opacity="1.000000" stroke="none" 
	d="
M245.190018,369.881561 
	C244.890457,367.628052 244.895020,365.176117 244.919876,361.825745 
	C245.132019,358.447449 245.488495,355.967712 245.490952,353.487671 
	C245.526321,317.701355 245.446350,281.914856 245.532928,246.128708 
	C245.614639,212.353470 245.995438,178.578613 245.994797,144.803589 
	C245.994141,110.347946 245.707764,75.892197 245.505768,41.436733 
	C245.447586,31.512747 242.945648,28.494757 233.223923,25.648794 
	C234.672882,25.262293 235.843369,25.095116 237.013855,24.927940 
	C245.305267,27.424723 247.150421,33.442547 247.139221,41.436527 
	C246.991882,146.523132 247.059555,251.610031 246.975723,356.696777 
	C246.972275,361.025970 246.009827,365.354370 245.190018,369.881561 
z"/>
<path fill="#B7C4CE" opacity="1.000000" stroke="none" 
	d="
M51.352470,281.126434 
	C55.001572,283.091583 56.248699,286.341095 56.063919,290.538696 
	C55.810490,296.295776 55.909473,302.074707 56.050858,307.839539 
	C56.102478,309.944336 56.680016,312.040802 57.077194,314.129761 
	C57.199059,314.770721 57.852173,315.475647 57.698650,315.979675 
	C54.639755,326.022736 59.430012,337.488495 51.847565,347.015991 
	C51.371571,344.979767 51.016094,342.677460 51.018284,340.375458 
	C51.036949,320.757172 51.120579,301.138947 51.352470,281.126434 
z"/>
<path fill="#366B74" opacity="1.000000" stroke="none" 
	d="
M550.956299,386.965240 
	C534.844238,386.735077 518.732361,386.323242 502.620087,386.305878 
	C427.655762,386.225006 352.691223,386.198975 277.727234,386.365204 
	C272.737427,386.376282 267.751495,388.144562 262.380981,388.993439 
	C265.222778,383.767853 270.418915,385.279633 276.003387,385.008179 
	C367.287872,385.008057 457.652618,385.002808 548.017395,384.997559 
	C548.866455,385.198364 549.715576,385.399139 550.769653,386.054657 
	C550.974731,386.509369 550.956299,386.965240 550.956299,386.965240 
z"/>
<path fill="#09476B" opacity="1.000000" stroke="none" 
	d="
M547.699707,384.725403 
	C457.652618,385.002808 367.287872,385.008057 276.452728,385.005432 
	C277.726471,384.665100 279.470428,384.042725 281.214722,384.041779 
	C368.458923,383.994415 455.703156,383.997955 542.947388,384.019073 
	C544.425659,384.019440 545.903809,384.302246 547.699707,384.725403 
z"/>
<path fill="#B7C6CF" opacity="1.000000" stroke="none" 
	d="
M542.023071,498.061279 
	C539.648315,494.613586 540.646545,491.905762 543.211853,488.811920 
	C548.745544,482.138062 553.830994,475.092560 559.401245,468.081177 
	C560.360657,473.832458 561.050110,479.706635 556.761963,485.437866 
	C551.641418,490.034607 546.832214,494.047943 542.023071,498.061279 
z"/>
<path fill="#16343F" opacity="1.000000" stroke="none" 
	d="
M269.014893,570.648987 
	C269.468994,570.736938 269.923126,570.824829 270.713623,571.006653 
	C269.289062,571.406189 267.528473,571.975952 265.767029,571.978638 
	C229.469681,572.033875 193.172241,572.036743 156.874847,572.008728 
	C153.334900,572.005981 149.795166,571.734131 146.091492,571.344788 
	C162.500488,571.025024 179.073273,570.929932 195.646194,570.876221 
	C207.419144,570.838074 219.192245,570.855835 231.823746,570.841675 
	C244.793106,570.772766 256.903992,570.710876 269.014893,570.648987 
z"/>
<path fill="#1E4B5A" opacity="1.000000" stroke="none" 
	d="
M204.092880,421.215851 
	C212.318207,414.048370 220.525269,406.859741 228.783661,399.730560 
	C230.512985,398.237732 232.431534,396.964111 234.574387,395.570343 
	C235.401108,401.036346 229.923096,402.122406 227.368439,405.249237 
	C223.165588,410.393646 217.790161,414.585938 212.864609,419.131439 
	C210.480255,421.331940 207.994980,423.423096 205.083588,425.986938 
	C204.414352,426.958252 204.216919,427.506409 204.019501,428.054565 
	C204.019516,428.054565 204.026901,427.992767 203.711578,428.012421 
	C202.272003,428.692657 201.147736,429.353241 200.015869,430.009308 
	C200.008255,430.004791 199.992905,429.996277 199.903076,429.672729 
	C199.139969,428.814117 198.466721,428.279053 197.930328,427.451141 
	C200.075760,425.177490 202.084320,423.196655 204.092880,421.215851 
z"/>
<path fill="#3A6B75" opacity="1.000000" stroke="none" 
	d="
M98.905617,28.903042 
	C101.383492,27.284763 103.725479,24.622210 106.369179,24.278166 
	C111.040619,23.670244 115.895981,24.643803 120.674019,24.638639 
	C125.271667,24.633673 129.867874,24.056772 134.466461,24.029867 
	C148.330368,23.948757 162.195145,24.013018 176.804977,24.280895 
	C179.717392,24.976627 181.884384,25.412060 183.597351,25.989902 
	C161.574738,26.132318 140.005630,26.219879 118.437981,26.079948 
	C111.807732,26.036930 105.225090,25.640926 99.157455,29.156467 
	C99.073380,29.072126 98.905617,28.903044 98.905617,28.903042 
z"/>
<path fill="#B1BFCA" opacity="1.000000" stroke="none" 
	d="
M67.604950,547.808960 
	C64.703331,551.383911 61.629589,555.002075 58.115314,558.124329 
	C57.008278,559.107849 54.720188,558.762146 52.644508,558.955139 
	C52.316357,558.885437 52.187038,558.875916 52.160248,558.636780 
	C52.133457,558.397644 52.050381,558.046814 52.050385,558.046814 
	C51.675106,556.218201 51.299828,554.389587 50.785130,551.859497 
	C50.804119,550.103516 50.962528,549.049133 51.120949,547.994751 
	C53.160431,547.528809 55.202995,546.669861 57.238682,546.685913 
	C60.582298,546.712158 63.921471,547.305969 67.604950,547.808960 
z"/>
<path fill="#1E4B5A" opacity="1.000000" stroke="none" 
	d="
M233.856934,410.051819 
	C233.223251,411.491455 232.471115,413.246613 231.154800,414.290131 
	C221.796844,421.708771 212.323547,428.981934 202.473267,436.127014 
	C196.517075,433.953064 196.517075,433.953064 199.992905,429.996277 
	C199.992905,429.996277 200.008255,430.004791 200.028107,430.335388 
	C200.496216,431.247803 201.290115,432.368011 201.342987,432.334076 
	C203.596725,430.887146 205.784470,429.337463 207.980362,427.800415 
	C208.087143,427.550781 208.247375,427.342255 208.989044,427.076111 
	C210.652145,426.348663 211.787262,425.719849 212.922363,425.091034 
	C219.953033,420.317780 225.245056,413.170410 233.856934,410.051819 
z"/>
<path fill="#164550" opacity="1.000000" stroke="none" 
	d="
M184.051392,25.847492 
	C181.884384,25.412060 179.717392,24.976627 177.272583,24.292995 
	C195.636429,24.024017 214.278107,23.995422 232.919769,24.001465 
	C234.065353,24.001835 235.210861,24.275713 236.685120,24.675137 
	C235.843369,25.095116 234.672882,25.262293 232.778320,25.707977 
	C229.045578,25.936623 226.036896,25.886761 222.713776,25.621355 
	C219.923630,25.549934 217.447906,25.694057 214.510910,25.915443 
	C204.050217,25.944298 194.050812,25.895895 184.051392,25.847492 
z"/>
<path fill="#153944" opacity="1.000000" stroke="none" 
	d="
M50.549263,122.877731 
	C50.571659,125.648811 50.594055,128.419891 50.555046,131.593445 
	C49.729736,131.485809 48.284542,130.951904 48.301399,130.469040 
	C48.744053,117.789055 49.338055,105.114372 50.211578,92.244293 
	C50.570160,94.116524 50.623276,96.183228 50.501122,98.754013 
	C50.214962,99.536079 50.286663,99.742706 50.540955,99.877975 
	C50.597141,102.984268 50.653324,106.090553 50.555351,109.729080 
	C50.292797,110.556442 50.379517,110.761322 50.661362,110.875969 
	C50.673923,114.316322 50.686485,117.756683 50.518276,121.725800 
	C50.222115,122.533401 50.292702,122.741127 50.549263,122.877731 
z"/>
<path fill="#16343F" opacity="1.000000" stroke="none" 
	d="
M68.006828,570.988403 
	C93.375923,570.965149 118.745026,570.941895 144.583649,571.005859 
	C139.374374,571.471130 133.700089,572.043701 128.015594,572.175903 
	C121.535355,572.326538 115.046127,572.044189 108.560562,572.021790 
	C95.361931,571.976196 82.163139,571.978882 68.489510,571.709839 
	C68.014610,571.458008 68.006828,570.988403 68.006828,570.988403 
z"/>
<path fill="#16343F" opacity="1.000000" stroke="none" 
	d="
M367.039001,571.396179 
	C392.325989,571.035889 417.737366,570.961731 443.558533,570.893311 
	C443.968353,570.899109 443.935394,571.133240 443.915344,571.331787 
	C443.895325,571.530396 443.852936,571.927368 443.441345,571.932922 
	C441.651886,571.983459 440.273987,572.028442 438.896118,572.073425 
	C422.940582,572.059570 406.984894,572.080627 391.029572,572.017090 
	C383.073853,571.985413 375.118744,571.798828 367.039001,571.396179 
z"/>
<path fill="#16343F" opacity="1.000000" stroke="none" 
	d="
M360.998383,570.693115 
	C362.403015,570.771545 363.807617,570.849915 365.630981,571.012268 
	C364.795410,571.398254 363.541534,571.961243 362.286652,571.963562 
	C339.220306,572.006104 316.153809,571.985596 293.087402,571.954346 
	C292.273499,571.953247 291.459930,571.704834 290.301208,571.334839 
	C293.332306,571.016479 296.708466,570.934814 301.000153,570.851135 
	C308.948578,570.788879 315.981415,570.728760 323.014282,570.668640 
	C334.368683,570.734863 345.723053,570.801086 357.910278,570.862427 
	C359.494843,570.802795 360.246613,570.747925 360.998383,570.693115 
z"/>
<path fill="#264E5D" opacity="1.000000" stroke="none" 
	d="
M541.917847,498.317474 
	C546.832214,494.047943 551.641418,490.034607 556.710693,485.765228 
	C556.007324,487.158752 555.374573,489.173462 554.024597,490.396515 
	C547.089722,496.679535 541.165405,504.170044 532.468506,508.482056 
	C532.273376,507.934753 532.265198,507.507843 532.256958,507.080902 
	C533.471558,506.045929 534.686157,505.010956 536.347595,503.618835 
	C537.553772,502.527802 538.313110,501.793945 539.072449,501.060059 
	C539.072449,501.060089 539.018738,501.005341 539.307007,500.975464 
	C539.770874,500.625946 539.946533,500.306305 540.122131,499.986664 
	C540.685669,499.515656 541.249146,499.044678 541.917847,498.317474 
z"/>
<path fill="#164550" opacity="1.000000" stroke="none" 
	d="
M51.018448,547.555176 
	C50.962528,549.049133 50.804119,550.103516 50.533134,551.545532 
	C50.000122,551.452209 49.207577,550.966248 49.214058,550.491211 
	C49.350449,540.502197 49.577049,530.514404 50.124683,520.257385 
	C50.533150,525.962646 50.602882,531.936890 50.483261,538.555786 
	C50.394279,539.737122 50.494659,540.273926 50.595032,540.810669 
	C50.702007,542.912354 50.808983,545.014038 51.018448,547.555176 
z"/>
<path fill="#B7C4CE" opacity="1.000000" stroke="none" 
	d="
M51.380554,247.118164 
	C56.792572,251.867523 55.459911,257.252319 51.857201,262.999542 
	C51.452259,258.029633 51.330807,252.770523 51.380554,247.118164 
z"/>
<path fill="#264E5D" opacity="1.000000" stroke="none" 
	d="
M458.002655,570.363159 
	C461.334503,568.452576 464.666382,566.542053 468.345093,564.573975 
	C465.437225,567.028198 462.182556,569.539978 458.088928,572.037598 
	C454.774994,572.034607 452.300018,572.045837 449.825043,572.057007 
	C449.825043,572.057007 449.499390,572.064209 449.034668,572.000732 
	C448.045715,571.645264 447.521515,571.353271 447.436646,570.961914 
	C451.251526,570.696106 454.627106,570.529663 458.002655,570.363159 
z"/>
<path fill="#92A7B6" opacity="1.000000" stroke="none" 
	d="
M272.325439,571.141785 
	C277.119659,570.663086 282.167023,570.517273 287.558502,570.573608 
	C282.794617,571.008728 277.686584,571.241699 272.325439,571.141785 
z"/>
<path fill="#B7C6CF" opacity="1.000000" stroke="none" 
	d="
M559.690674,396.844421 
	C557.393005,394.116943 555.200684,391.022156 552.926270,387.599609 
	C558.471680,387.840363 557.965149,393.041351 559.690674,396.844421 
z"/>
<path fill="#3A6B75" opacity="1.000000" stroke="none" 
	d="
M97.334412,33.655495 
	C95.690613,34.531792 94.046806,35.408089 92.179321,36.163155 
	C94.043495,33.696148 96.131363,31.350378 98.562424,28.953827 
	C98.905617,28.903044 99.073380,29.072126 99.105118,29.357174 
	C99.136848,29.642220 99.024277,30.041489 98.757828,30.132103 
	C98.082436,31.138222 97.673492,32.053726 97.207474,33.148384 
	C97.150406,33.327541 97.334412,33.655491 97.334412,33.655495 
z"/>
<path fill="#09476B" opacity="1.000000" stroke="none" 
	d="
M207.704666,427.976013 
	C205.784470,429.337463 203.596725,430.887146 201.342987,432.334076 
	C201.290115,432.368011 200.496216,431.247803 200.035706,430.339905 
	C201.147736,429.353241 202.272003,428.692657 203.738770,428.027557 
	C205.197174,428.065887 206.313080,428.108765 207.704666,427.976013 
z"/>
<path fill="#264E5D" opacity="1.000000" stroke="none" 
	d="
M468.947662,564.688354 
	C471.078796,562.364075 473.574921,560.018494 476.422302,557.652588 
	C474.286621,559.977051 471.799622,562.322021 468.947662,564.688354 
z"/>
<path fill="#264E5D" opacity="1.000000" stroke="none" 
	d="
M53.042107,562.381958 
	C55.041771,563.765869 57.039913,565.516235 59.055321,567.603821 
	C57.061916,566.210205 55.051250,564.479370 53.042107,562.381958 
z"/>
<path fill="#264E5D" opacity="1.000000" stroke="none" 
	d="
M67.735786,570.761963 
	C68.006828,570.988403 68.014610,571.458008 68.023125,571.692139 
	C65.088730,570.817871 62.145817,569.709473 59.134476,568.244141 
	C61.865608,568.770020 64.665176,569.652771 67.735786,570.761963 
z"/>
<path fill="#B7C6CF" opacity="1.000000" stroke="none" 
	d="
M559.779358,417.644348 
	C559.039124,418.005615 558.429688,418.001068 557.361816,417.993591 
	C557.601746,415.669403 558.300110,413.348145 559.338867,410.909912 
	C559.756226,412.954803 559.833191,415.116638 559.779358,417.644348 
z"/>
<path fill="#1E4B5A" opacity="1.000000" stroke="none" 
	d="
M446.997314,571.061279 
	C447.521515,571.353271 448.045715,571.645264 448.871796,571.999390 
	C445.964569,572.230164 442.755432,572.398804 439.221222,572.320435 
	C440.273987,572.028442 441.651886,571.983459 443.664124,571.827026 
	C444.575226,571.535889 444.807129,571.310059 445.328003,571.013062 
	C446.106964,571.012451 446.552155,571.036865 446.997314,571.061279 
z"/>
<path fill="#B7C6CF" opacity="1.000000" stroke="none" 
	d="
M521.250488,517.716064 
	C522.070984,516.544678 523.212646,515.325134 524.684937,514.059448 
	C523.867615,515.231506 522.719666,516.449707 521.250488,517.716064 
z"/>
<path fill="#1E4B5A" opacity="1.000000" stroke="none" 
	d="
M450.145386,572.299255 
	C452.300018,572.045837 454.774994,572.034607 457.716858,572.049805 
	C455.611115,572.231262 453.038422,572.386353 450.145386,572.299255 
z"/>
<path fill="#B7C6CF" opacity="1.000000" stroke="none" 
	d="
M525.336182,513.959473 
	C525.740356,513.043213 526.467712,512.070801 527.512756,511.031738 
	C527.106689,511.944458 526.382996,512.923889 525.336182,513.959473 
z"/>
<path fill="#09476B" opacity="1.000000" stroke="none" 
	d="
M212.581116,425.073364 
	C211.787262,425.719849 210.652145,426.348663 209.160141,426.974792 
	C209.948792,426.333282 211.094330,425.694489 212.581116,425.073364 
z"/>
<path fill="#264E5D" opacity="1.000000" stroke="none" 
	d="
M479.023499,555.802124 
	C479.564575,554.889832 480.441101,553.938293 481.667511,552.984863 
	C481.131256,553.909546 480.245087,554.836243 479.023499,555.802124 
z"/>
<path fill="#B7C6CF" opacity="1.000000" stroke="none" 
	d="
M531.938538,507.161835 
	C532.265198,507.507843 532.273376,507.934753 532.203186,508.672180 
	C531.291748,509.244751 530.458618,509.506897 529.295654,509.791504 
	C529.850525,508.956879 530.735291,508.099823 531.938538,507.161835 
z"/>
<path fill="#B7C6CF" opacity="1.000000" stroke="none" 
	d="
M514.196289,523.700073 
	C514.464539,522.992737 514.981934,522.112732 515.810364,521.143066 
	C515.562744,521.878052 515.004150,522.702759 514.196289,523.700073 
z"/>
<path fill="#92A7B6" opacity="1.000000" stroke="none" 
	d="
M50.741791,80.168884 
	C51.163586,80.879852 51.321705,81.765144 51.271667,82.842560 
	C50.868378,82.137520 50.673244,81.240364 50.741791,80.168884 
z"/>
<path fill="#B7C6CF" opacity="1.000000" stroke="none" 
	d="
M518.704224,518.738464 
	C518.976196,518.579834 519.169495,518.700317 519.272339,518.747192 
	C518.772278,519.455078 518.169434,520.116028 517.257446,520.773987 
	C517.442993,520.146362 517.937622,519.521729 518.704224,518.738464 
z"/>
<path fill="#264E5D" opacity="1.000000" stroke="none" 
	d="
M476.935669,557.695801 
	C477.148254,557.079773 477.693207,556.420166 478.584351,555.737671 
	C478.376404,556.360596 477.822205,557.006470 476.935669,557.695801 
z"/>
<path fill="#09476B" opacity="1.000000" stroke="none" 
	d="
M204.245758,427.862610 
	C204.216919,427.506409 204.414352,426.958252 204.830353,426.209595 
	C204.856613,426.562927 204.664322,427.116821 204.245758,427.862610 
z"/>
<path fill="#B7C6CF" opacity="1.000000" stroke="none" 
	d="
M551.213623,387.016602 
	C550.956299,386.965240 550.974731,386.509369 551.007690,386.283295 
	C551.333191,386.204895 551.625732,386.352570 551.955933,386.759277 
	C551.819336,387.034882 551.645142,387.051422 551.213623,387.016602 
z"/>
<path fill="#92A7B6" opacity="1.000000" stroke="none" 
	d="
M51.864777,558.098511 
	C52.050381,558.046814 52.133457,558.397644 52.134274,558.577393 
	C51.983120,558.554810 51.831150,558.352539 51.864777,558.098511 
z"/>
<path fill="#A0B1BF" opacity="1.000000" stroke="none" 
	d="
M447.436646,570.961914 
	C446.552155,571.036865 446.106964,571.012451 445.055725,570.952637 
	C444.278198,570.989258 444.106781,571.061279 443.935394,571.133240 
	C443.935394,571.133240 443.968353,570.899109 444.022186,570.793945 
	C444.481415,563.964905 439.334290,561.696106 434.548370,560.185181 
	C426.418671,557.618469 418.058533,557.073303 409.509613,559.212891 
	C399.228516,561.785950 388.825470,563.977356 378.368561,565.678345 
	C375.204041,566.193054 371.688843,564.512146 368.327728,563.871216 
	C365.650696,563.360657 362.901001,562.277466 360.293152,562.539490 
	C353.008270,563.271240 346.218384,563.733582 342.843872,555.164124 
	C342.449188,554.161743 339.803406,553.017761 338.831360,553.428955 
	C328.622162,557.747742 323.232422,552.292053 318.984802,544.128418 
	C318.632507,543.451233 317.914612,542.964294 317.730438,542.770935 
	C314.251007,544.009827 311.177155,545.039734 308.152710,546.198608 
	C304.879730,547.452637 301.876617,548.592407 304.331421,553.352051 
	C306.083496,556.749084 303.838531,559.204346 300.033600,558.752563 
	C299.048645,558.635681 298.077423,558.176575 297.107727,558.199890 
	C294.139282,558.271179 290.948547,560.715393 289.403625,555.150452 
	C288.574585,552.164124 286.856842,549.942444 288.378662,546.586792 
	C288.949738,545.327576 288.230499,542.599243 287.134674,541.615784 
	C281.319550,536.397278 281.530182,530.246216 282.891571,523.305481 
	C283.727753,519.042603 283.016113,514.476013 282.996124,509.635345 
	C307.921204,509.173859 332.849670,509.104004 357.778198,509.076538 
	C390.522339,509.040436 423.266541,509.037720 456.472870,509.042877 
	C457.261902,519.392029 457.588806,529.718933 457.726135,540.848938 
	C457.695587,544.765747 457.854614,547.879456 458.013611,550.993164 
	C458.004303,552.062195 457.994995,553.131165 458.006927,554.600586 
	C458.014526,559.807190 458.000885,564.613464 457.994965,569.891479 
	C454.627106,570.529663 451.251526,570.696106 447.436646,570.961914 
z"/>
<path fill="#9AADBB" opacity="1.000000" stroke="none" 
	d="
M269.012695,570.255737 
	C256.903992,570.710876 244.793106,570.772766 232.278168,570.761475 
	C231.573318,569.432861 231.611084,567.924194 230.900940,566.974854 
	C229.441437,565.023682 216.486908,562.533691 214.099594,563.172668 
	C208.897522,564.565186 203.991730,565.690369 198.204544,564.001343 
	C191.912781,562.165039 185.306732,560.692200 178.166397,562.056030 
	C173.995010,562.852661 169.083389,560.060730 164.566833,558.680237 
	C160.259964,557.363770 156.033615,555.783875 152.801666,554.673523 
	C151.539230,550.242676 150.105469,545.928040 149.120285,541.513245 
	C148.403427,538.301025 148.279037,534.956482 147.890503,531.670898 
	C148.441269,531.467590 148.992050,531.264282 149.542831,531.060974 
	C150.860809,532.252258 152.178787,533.443542 154.603409,535.635071 
	C154.319336,533.273499 154.557785,531.314026 153.965576,531.018372 
	C151.468796,529.771912 148.724274,529.021729 145.670807,527.949707 
	C145.731705,520.761841 138.022888,519.058350 133.410065,514.727173 
	C131.656937,513.081055 129.834641,511.508575 128.011353,509.563538 
	C149.225021,509.146637 170.471176,509.038025 191.717438,509.002136 
	C204.832703,508.979980 217.948181,509.068665 231.527802,509.174011 
	C232.862137,510.742004 233.381714,512.707275 234.657730,513.671814 
	C244.806458,521.342896 243.075562,527.332764 240.541168,537.105469 
	C239.938049,539.431152 240.401566,542.024536 240.300247,544.491699 
	C240.186890,547.251831 240.285614,550.067505 239.751465,552.751404 
	C239.114227,555.953186 240.262802,557.235046 243.269821,558.001038 
	C250.925186,559.951111 258.587067,561.950256 266.057404,564.486450 
	C267.485535,564.971313 268.048401,568.004883 269.012695,570.255737 
z"/>
<path fill="#264E5D" opacity="1.000000" stroke="none" 
	d="
M194.975861,441.983398 
	C182.005829,452.102448 169.056900,462.248749 156.060257,472.333557 
	C140.686890,484.262604 125.272339,496.138611 109.280701,507.828583 
	C108.386063,506.981842 108.086388,506.344177 107.992462,505.445892 
	C109.943336,503.670166 111.684052,502.149902 113.434311,500.640747 
	C127.954689,488.120758 142.476807,475.602814 157.298767,462.930939 
	C165.394760,456.164429 173.190369,449.551239 180.969482,443.302246 
	C179.910461,445.554474 178.867905,447.442474 177.052872,450.729370 
	C180.240738,449.230957 182.228058,448.332489 184.183792,447.369812 
	C187.790955,445.594238 191.379532,443.780945 194.975861,441.983398 
M176.465027,452.491821 
	C176.465027,452.491821 176.515549,452.469635 176.465027,452.491821 
z"/>
<path fill="#153944" opacity="1.000000" stroke="none" 
	d="
M195.221588,441.940063 
	C191.379532,443.780945 187.790955,445.594238 184.183792,447.369812 
	C182.228058,448.332489 180.240738,449.230957 177.052872,450.729370 
	C178.867905,447.442474 179.910461,445.554474 181.204468,443.071259 
	C184.678696,439.660400 187.901459,436.844757 191.474426,434.001923 
	C192.518616,432.945404 193.212601,431.916046 193.947266,430.935303 
	C193.987946,430.983887 193.887527,430.906647 194.258331,430.911194 
	C195.685287,429.865997 196.741440,428.816223 197.815430,427.761963 
	C197.833282,427.757446 197.793472,427.743988 197.793472,427.743988 
	C198.466721,428.279053 199.139969,428.814117 199.903076,429.672729 
	C196.517075,433.953064 196.517075,433.953064 202.130600,436.223206 
	C202.159729,436.792023 201.996643,436.990875 201.235336,437.167786 
	C200.496857,437.509186 200.235397,437.773224 199.973938,438.037262 
	C199.973953,438.037262 199.900696,438.298279 199.387177,438.269653 
	C197.934769,439.208008 196.995850,440.174957 196.056931,441.141937 
	C196.008270,441.509064 195.811737,441.760681 195.221588,441.940063 
z"/>
<path fill="#A0B1BF" opacity="1.000000" stroke="none" 
	d="
M273.543976,509.166321 
	C271.641235,517.410217 263.069275,519.842407 257.318817,513.844116 
	C256.660614,513.157471 257.057770,511.459076 257.036316,509.837280 
	C262.431793,509.328979 267.756561,509.213165 273.543976,509.166321 
z"/>
<path fill="#3A6B75" opacity="1.000000" stroke="none" 
	d="
M107.786720,505.706543 
	C108.086388,506.344177 108.386063,506.981842 108.936600,507.870728 
	C109.187477,508.121979 109.122437,508.554474 109.037041,508.755737 
	C107.420998,509.501434 105.890343,510.045898 104.098083,510.662170 
	C103.363670,510.082916 102.890862,509.431854 102.574142,508.340393 
	C103.506599,507.284729 104.282974,506.669373 105.405304,506.083862 
	C106.429749,505.977997 107.108231,505.842255 107.786720,505.706543 
z"/>
<path fill="#A0B1BF" opacity="1.000000" stroke="none" 
	d="
M250.593201,509.182190 
	C250.425491,510.425446 249.842987,511.600586 249.260498,512.775757 
	C248.190948,511.845459 247.121414,510.915192 246.022003,509.632874 
	C247.387558,509.225311 248.782990,509.169708 250.593201,509.182190 
z"/>
<path fill="#264E5D" opacity="1.000000" stroke="none" 
	d="
M196.382843,441.064148 
	C196.995850,440.174957 197.934769,439.208008 199.251770,438.263733 
	C198.656143,439.186401 197.682449,440.086365 196.382843,441.064148 
z"/>
<path fill="#264E5D" opacity="1.000000" stroke="none" 
	d="
M200.265472,438.010315 
	C200.235397,437.773224 200.496857,437.509186 201.033981,437.181335 
	C201.058777,437.406097 200.807892,437.694702 200.265472,438.010315 
z"/>
<path fill="#FBFCFC" opacity="1.000000" stroke="none" 
	d="
M105.059372,506.054016 
	C104.282974,506.669373 103.506599,507.284729 102.474457,508.052032 
	C97.618523,505.774567 98.166130,501.315704 98.156754,497.274963 
	C98.078041,463.309113 98.098045,429.343079 98.095795,395.377075 
	C98.088837,290.149170 98.086266,184.921265 98.076309,79.693352 
	C98.075905,75.393715 98.018097,71.094078 97.939728,66.391296 
	C97.866463,55.510811 97.840515,45.033466 97.574493,34.105804 
	C97.334412,33.655491 97.150406,33.327541 97.578667,33.045242 
	C98.346046,31.855787 98.685158,30.948637 99.024277,30.041489 
	C99.024277,30.041489 99.136848,29.642220 99.189194,29.441515 
	C105.225090,25.640926 111.807732,26.036930 118.437981,26.079948 
	C140.005630,26.219879 161.574738,26.132318 183.597351,25.989904 
	C194.050812,25.895895 204.050217,25.944298 214.941910,26.053738 
	C218.232193,26.022150 220.630203,25.929523 223.028214,25.836899 
	C226.036896,25.886761 229.045578,25.936623 232.499847,25.927301 
	C242.945648,28.494757 245.447586,31.512747 245.505768,41.436733 
	C245.707764,75.892197 245.994141,110.347946 245.994797,144.803589 
	C245.995438,178.578613 245.614639,212.353470 245.532928,246.128708 
	C245.446350,281.914856 245.526321,317.701355 245.490952,353.487671 
	C245.488495,355.967712 245.132019,358.447449 244.830505,361.376465 
	C227.653519,379.390900 210.586182,396.956116 193.091568,414.986328 
	C190.122009,418.050537 187.566605,420.637115 185.039749,423.251251 
	C173.898514,434.777161 162.765533,446.311096 151.384155,458.046570 
	C137.745956,471.794098 124.326263,485.310730 110.987518,498.906799 
	C108.827377,501.108612 107.026390,503.662781 105.059372,506.054016 
z"/>
<path fill="#47704C" opacity="1.000000" stroke="none" 
	d="
M50.732079,540.562988 
	C50.494659,540.273926 50.394279,539.737122 50.428757,538.946899 
	C50.665447,539.234009 50.767288,539.774658 50.732079,540.562988 
z"/>
<path fill="#47704C" opacity="1.000000" stroke="none" 
	d="
M50.630566,99.688538 
	C50.286663,99.742706 50.214962,99.536079 50.430115,99.190742 
	C50.534382,99.123398 50.720177,99.499100 50.630566,99.688538 
z"/>
<path fill="#47704C" opacity="1.000000" stroke="none" 
	d="
M50.737644,110.683678 
	C50.379517,110.761322 50.292797,110.556442 50.511108,110.193344 
	C50.621017,110.125374 50.813927,110.491386 50.737644,110.683678 
z"/>
<path fill="#47704C" opacity="1.000000" stroke="none" 
	d="
M50.638069,122.689301 
	C50.292702,122.741127 50.222115,122.533401 50.443878,122.189041 
	C50.550255,122.123528 50.726871,122.500862 50.638069,122.689301 
z"/>
<path fill="#9AADBB" opacity="1.000000" stroke="none" 
	d="
M323.034302,570.328918 
	C315.981415,570.728760 308.948578,570.788879 301.451599,570.773804 
	C301.897980,569.337463 302.509857,567.276672 303.771454,566.738220 
	C308.836914,564.576233 314.049835,563.372437 319.725433,564.907715 
	C322.810974,565.742371 324.074921,566.886108 323.034302,570.328918 
z"/>
<path fill="#A0B1BF" opacity="1.000000" stroke="none" 
	d="
M282.671570,544.396362 
	C281.160675,543.748657 279.937256,543.087219 278.713837,542.425781 
	C279.026978,542.056641 279.340149,541.687500 279.653290,541.318420 
	C280.755188,542.339844 281.857086,543.361267 282.671570,544.396362 
z"/>
<path fill="#A0B1BF" opacity="1.000000" stroke="none" 
	d="
M261.414215,524.326843 
	C262.610779,524.353699 263.740936,524.669250 264.871094,524.984863 
	C264.597229,525.527588 264.323364,526.070374 264.049500,526.613098 
	C263.148926,525.947266 262.248383,525.281433 261.414215,524.326843 
z"/>
<path fill="#A0B1BF" opacity="1.000000" stroke="none" 
	d="
M360.967316,570.377197 
	C360.246613,570.747925 359.494843,570.802795 358.372498,570.780396 
	C358.397156,569.940002 358.792419,569.176758 359.187622,568.413452 
	C359.770508,568.962708 360.353363,569.511963 360.967316,570.377197 
z"/>
<path fill="#CBD5DC" opacity="1.000000" stroke="none" 
	d="
M458.242188,550.669006 
	C457.854614,547.879456 457.695587,544.765747 457.738892,541.312561 
	C458.117706,544.096985 458.294220,547.220947 458.242188,550.669006 
z"/>
<path fill="#96AAB9" opacity="1.000000" stroke="none" 
	d="
M151.629578,457.842102 
	C162.765533,446.311096 173.898514,434.777161 185.039749,423.251251 
	C187.566605,420.637115 190.122009,418.050537 192.961456,415.283905 
	C195.075378,415.743958 196.992172,416.177887 198.681625,417.051422 
	C200.491455,417.987274 202.087265,419.336975 203.934677,420.860962 
	C202.084320,423.196655 200.075760,425.177490 197.930328,427.451141 
	C197.793472,427.743988 197.833282,427.757446 197.520798,427.880646 
	C196.101379,428.971436 194.994446,429.939026 193.887512,430.906647 
	C193.887527,430.906647 193.987946,430.983887 193.661789,431.055054 
	C192.598511,432.093872 191.861374,433.061523 191.124237,434.029114 
	C187.901459,436.844757 184.678696,439.660400 181.220947,442.707031 
	C173.190369,449.551239 165.394760,456.164429 157.283844,462.555176 
	C155.188889,460.835876 153.409225,459.338989 151.629578,457.842102 
z"/>
<path fill="#B7C6CF" opacity="1.000000" stroke="none" 
	d="
M538.706421,501.065216 
	C538.313110,501.793945 537.553772,502.527802 536.485352,503.352722 
	C536.897705,502.652649 537.619019,501.861511 538.706421,501.065216 
z"/>
<path fill="#B7C6CF" opacity="1.000000" stroke="none" 
	d="
M539.898010,500.122070 
	C539.946533,500.306305 539.770874,500.625946 539.317017,501.012451 
	C539.250488,500.805389 539.462158,500.531433 539.898010,500.122070 
z"/>
<path fill="#3A6B75" opacity="1.000000" stroke="none" 
	d="
M222.713776,25.621353 
	C220.630203,25.929523 218.232193,26.022150 215.403183,25.976479 
	C217.447906,25.694057 219.923630,25.549934 222.713776,25.621353 
z"/>
<path fill="#264E5D" opacity="1.000000" stroke="none" 
	d="
M443.915344,571.331787 
	C444.106781,571.061279 444.278198,570.989258 444.721924,570.977661 
	C444.807129,571.310059 444.575226,571.535889 444.075684,571.821533 
	C443.852936,571.927368 443.895325,571.530396 443.915344,571.331787 
z"/>
<path fill="#B1BFCA" opacity="1.000000" stroke="none" 
	d="
M98.757828,30.132101 
	C98.685158,30.948637 98.346046,31.855787 97.635735,32.866085 
	C97.673492,32.053726 98.082436,31.138222 98.757828,30.132101 
z"/>
<path fill="#8CA2B2" opacity="1.000000" stroke="none" 
	d="
M151.384155,458.046570 
	C153.409225,459.338989 155.188889,460.835876 156.983459,462.708496 
	C142.476807,475.602814 127.954689,488.120758 113.434311,500.640747 
	C111.684052,502.149902 109.943336,503.670166 107.992462,505.445923 
	C107.108231,505.842255 106.429749,505.977997 105.405327,506.083893 
	C107.026390,503.662781 108.827377,501.108612 110.987518,498.906799 
	C124.326263,485.310730 137.745956,471.794098 151.384155,458.046570 
z"/>
<path fill="#153944" opacity="1.000000" stroke="none" 
	d="
M176.490295,452.480713 
	C176.515549,452.469635 176.465027,452.491821 176.490295,452.480713 
z"/>
<path fill="#1E4B5A" opacity="1.000000" stroke="none" 
	d="
M194.258331,430.911194 
	C194.994446,429.939026 196.101379,428.971436 197.502945,427.885132 
	C196.741440,428.816223 195.685287,429.865997 194.258331,430.911194 
z"/>
<path fill="#1E4B5A" opacity="1.000000" stroke="none" 
	d="
M191.474426,434.001953 
	C191.861374,433.061523 192.598511,432.093872 193.621124,431.006470 
	C193.212601,431.916046 192.518616,432.945404 191.474426,434.001953 
z"/>
</svg>